<?xml version="1.0" encoding="UTF-8"?>
<svg id="Capa_1" data-name="Capa 1" xmlns="http://www.w3.org/2000/svg" viewBox="0 0 697.75 697.75">
  <defs>
    <style>
      .cls-1 {
        fill: #6d58a2;
      }
    </style>
  </defs>
  <path class="cls-1" d="m630.87,238.7h-204.75l-77.35-133.97-77.35,133.97H66.87v20.52h192.65l-40.62,70.37H66.87v20.52h140.33l-42.06,72.63h-98.28v20.52h86.38l-86.38,149.77h564l-192.85-333.8h192.85v-20.52Zm-282.1-94.38l54.57,94.38h-108.94l54.37-94.38Zm-118.79,205.78h84.94l-41.85,72.63h-84.94l41.85-72.63Zm118.79-18.87l85.76,148.54h-171.52l85.76-148.54Zm247.64,241.89H101.34l74.89-129.87h84.94l-32.42,56.42h240.25l-86.38-149.57h84.94l128.84,223.01Zm-140.74-243.53h-84.94l-21.95-38.16-21.95,38.16h-84.94l40.62-70.37h132.54l40.62,70.37Z"/>
</svg>