<?xml version="1.0" encoding="UTF-8"?>
<svg id="Capa_1" data-name="Capa 1" xmlns="http://www.w3.org/2000/svg" viewBox="0 0 1772 510.51">
  <defs>
    <style>
      .cls-1 {
        fill: #fff;
      }

      .cls-2 {
        fill: #705da4;
      }
    </style>
  </defs>
  <g>
    <path class="cls-1" d="m179.23,478.38c-.43,0-.87-.03-1.3-.08-19.34-2.42-45.2-4.47-76.88-6.1-2.91-.03-14.27-.45-33.81-1.24-20.39-.82-35.94-1.44-46.65-1.85-2.83-.11-5.49-1.35-7.38-3.45-1.9-2.1-2.87-4.87-2.69-7.7l3.71-59.34c.07-1.18.34-2.31.77-3.35,2.41-51.77,4.85-101.33,7.26-147.35,4.51-79.54,9.3-150.13,14.24-209.85.23-2.78,1.55-5.35,3.68-7.15,1.9-1.61,4.31-2.49,6.78-2.49.29,0,.58.01.87.04l59.34,4.95c5.78.48,10.07,5.56,9.59,11.34-4.92,59.05-9.7,128.83-14.2,207.41-2.3,44.08-4.63,91.05-6.92,139.72,3.29.21,6.23.42,8.8.63,33.79,1.24,61.65,3.13,82.81,5.62,5.75.68,9.86,5.87,9.2,11.62l-6.8,59.34c-.32,2.79-1.74,5.33-3.94,7.06-1.86,1.46-4.15,2.25-6.49,2.25Z"/>
    <path class="cls-2" d="m46.96,38.92l59.34,4.95c-4.95,59.34-9.69,128.56-14.22,207.68-2.47,47.39-4.94,97.46-7.42,150.2,7.82.41,14.22.83,19.16,1.24,33.78,1.24,61.19,3.09,82.21,5.56l-6.8,59.34c-19.78-2.47-45.74-4.53-77.88-6.18-2.07,0-13.29-.41-33.68-1.24-20.4-.82-35.96-1.44-46.67-1.86l3.71-59.34h.62c2.47-53.16,4.94-103.42,7.42-150.81,4.53-79.94,9.27-149.78,14.22-209.53m0-21c-4.95,0-9.76,1.75-13.57,4.97-4.25,3.6-6.9,8.74-7.36,14.3-4.95,59.8-9.74,130.48-14.25,210.08,0,.03,0,.06,0,.09-2.38,45.62-4.8,94.67-7.19,145.9-.45,1.5-.73,3.08-.83,4.7L.04,457.3c-.35,5.64,1.59,11.19,5.38,15.39,3.79,4.2,9.12,6.69,14.77,6.9,10.13.39,24.95.98,46.63,1.85,26.44,1.07,32.18,1.23,33.92,1.25,31.33,1.62,56.85,3.64,75.88,6.02.87.11,1.74.16,2.61.16,4.68,0,9.26-1.57,12.98-4.49,4.41-3.46,7.25-8.55,7.89-14.12l6.8-59.34c1.32-11.5-6.92-21.9-18.41-23.25-21.06-2.48-48.59-4.37-81.87-5.62,2.14-44.95,4.29-88.37,6.43-129.36,4.49-78.46,9.26-148.13,14.18-207.09.46-5.55-1.3-11.06-4.9-15.31-3.6-4.25-8.74-6.9-14.29-7.36l-59.34-4.95c-.58-.05-1.16-.07-1.74-.07h0Z"/>
  </g>
  <g>
    <path class="cls-1" d="m280.28,181.07l-42.03-1.24c-2.79-.08-5.42-1.27-7.33-3.3s-2.94-4.73-2.85-7.52c.81-26.82.6-53.16-.61-78.29-.28-5.75,4.13-10.66,9.88-10.99l42.65-2.47c.2-.01.41-.02.61-.02,2.61,0,5.13.97,7.07,2.73,2.09,1.9,3.32,4.56,3.43,7.38.41,11.39.62,25.45.62,41.79s-.21,29.98-.62,41.78c-.2,5.67-4.86,10.13-10.49,10.13-.1,0-.21,0-.31,0Z"/>
    <path class="cls-2" d="m280.59,87.75c.4,11.13.62,24.94.62,41.41s-.21,29.88-.62,41.41l-42.03-1.24c.82-27.2.62-53.56-.62-79.12l42.65-2.47m0-21c-.4,0-.81.01-1.22.04l-42.65,2.47c-11.5.67-20.32,10.47-19.76,21.98,1.2,24.85,1.4,50.92.6,77.47-.17,5.57,1.88,10.98,5.71,15.03,3.82,4.06,9.1,6.43,14.67,6.59l42.03,1.24c.21,0,.42,0,.63,0,11.27,0,20.58-8.93,20.98-20.26.42-11.93.63-26.11.63-42.15s-.21-30.65-.63-42.17c-.21-5.64-2.68-10.97-6.85-14.77-3.88-3.53-8.92-5.47-14.13-5.47h0Z"/>
  </g>
  <g>
    <path class="cls-1" d="m555.62,500.01c-4.96,0-9.37-3.53-10.31-8.58l-24.41-131.35c-2.79-.04-5.95-.06-9.46-.06-7.73,0-17.34.1-28.55.3-5.79.14-11.61.21-17.24.21-8.27,0-16.36-.15-24.15-.46l-29.74,96.08c-1.39,4.5-5.54,7.4-10.03,7.4-1.01,0-2.04-.15-3.06-.46l-56.86-17.31c-2.67-.81-4.91-2.66-6.22-5.13s-1.58-5.36-.75-8.03L463.4,17.89c1.37-4.42,5.45-7.39,10.02-7.39.23,0,.45,0,.68.02l57.48,3.71c4.81.31,8.79,3.85,9.65,8.59l82.82,454.3c.5,2.74-.11,5.57-1.7,7.86-1.59,2.29-4.02,3.86-6.76,4.35l-58.1,10.51c-.63.11-1.26.17-1.88.17Zm-73.65-220.03c9.87-.2,18.01-.3,24.21-.3h.34l-14.8-81.42-25.63,81.73h15.88Z"/>
    <path class="cls-2" d="m473.43,21l57.48,3.71,82.82,454.3-58.1,10.51-25.96-139.69c-4.33-.2-10.41-.3-18.24-.3s-17.41.1-28.74.3c-5.79.14-11.47.21-17.04.21-11.06,0-21.65-.27-31.79-.83l-32.14,103.84-56.86-17.31L473.43,21m-21.63,269.49h30.28c9.89-.2,17.93-.3,24.11-.3s10.51.1,12.98.3l-24.72-135.98-42.65,135.98M473.42,0c-9.14,0-17.31,5.95-20.05,14.78l-128.56,414.74c-1.65,5.34-1.11,11.11,1.5,16.05,2.62,4.94,7.09,8.63,12.44,10.26l56.86,17.31c2.04.62,4.1.92,6.12.92,8.97,0,17.27-5.79,20.05-14.8l27.37-88.43c5.4.14,10.91.21,16.5.21s11.56-.07,17.48-.21c11.12-.2,20.64-.3,28.3-.3.24,0,.48,0,.72,0l22.83,122.83c1.88,10.1,10.7,17.17,20.62,17.17,1.24,0,2.5-.11,3.76-.34l58.1-10.51c5.49-.99,10.35-4.12,13.53-8.71s4.4-10.24,3.4-15.72L551.57,20.94c-1.73-9.48-9.69-16.57-19.31-17.19L474.78.04c-.46-.03-.91-.04-1.36-.04h0Zm6.97,269.49l8.62-27.48,4.96,27.27c-3.69.05-7.73.12-12.1.21h-1.47Z"/>
  </g>
  <g>
    <path class="cls-1" d="m771.53,432.01l-59.34-2.47c-5.79-.24-10.29-5.13-10.05-10.93.81-19.42,1.01-49.18.61-88.46l-.54-77.38h-47.06c-2.8,0-5.49-1.12-7.46-3.11-1.97-1.99-3.07-4.69-3.04-7.5l.62-59.34c.06-5.76,4.74-10.39,10.5-10.39h45.55s-.43-23.43-.43-23.5c0-41.88.41-72.15,1.25-92.53.11-2.78,1.33-5.41,3.38-7.29,1.94-1.79,4.48-2.77,7.11-2.77.15,0,.29,0,.44,0l59.34,2.47c2.78.12,5.41,1.33,7.29,3.38,1.89,2.05,2.88,4.77,2.76,7.55-.81,19.39-1.23,49.15-1.23,88.47l.43,24.22c18.3.06,35.05.26,49.89.61,5.79.14,10.37,4.93,10.25,10.72l-1.24,59.34c-.06,2.79-1.22,5.44-3.24,7.37-1.96,1.87-4.56,2.91-7.26,2.91-.08,0-.17,0-.25,0-14.16-.34-30.02-.54-47.27-.6l.54,76.56c.41,40.81.2,71.97-.63,92.59-.11,2.79-1.33,5.41-3.38,7.3-1.94,1.79-4.48,2.78-7.12,2.78-.15,0-.29,0-.44,0Z"/>
    <path class="cls-2" d="m712.63,56.85l59.34,2.47c-.83,19.78-1.24,49.45-1.24,89l.62,34.61c22.66,0,42.65.21,59.95.62l-1.24,59.34c-16.9-.41-36.26-.62-58.1-.62l.62,87.15c.41,40.79.2,71.5-.62,92.1l-59.34-2.47c.82-19.78,1.02-49.45.62-89l-.62-87.77h-57.48l.62-59.34h56.25l-.62-33.99c0-41.2.41-71.9,1.24-92.1m0-21c-5.26,0-10.34,1.97-14.22,5.55-4.1,3.77-6.53,9.02-6.76,14.59-.84,20.52-1.26,50.93-1.26,92.96,0,.13,0,.25,0,.38l.23,12.61h-34.86c-11.51,0-20.88,9.27-21,20.78l-.62,59.34c-.06,5.61,2.13,11,6.07,14.99,3.94,3.99,9.32,6.23,14.93,6.23h36.63l.47,66.92s0,.04,0,.07c.4,39.1.2,68.68-.6,87.92-.48,11.59,8.52,21.37,20.11,21.85l59.34,2.47c.29.01.58.02.88.02,5.26,0,10.35-1.98,14.23-5.56,4.1-3.78,6.53-9.03,6.75-14.61.83-20.79,1.04-52.12.63-93.1l-.47-65.91c13.11.09,25.31.27,36.45.54.17,0,.34,0,.5,0,5.4,0,10.6-2.08,14.51-5.82,4.03-3.86,6.37-9.16,6.48-14.74l1.24-59.34c.24-11.57-8.93-21.16-20.5-21.43-12.08-.28-25.41-.47-39.82-.56l-.25-13.87c0-39.13.41-68.71,1.22-87.93.23-5.57-1.75-11-5.52-15.1-3.77-4.1-9.02-6.53-14.58-6.77l-59.34-2.47c-.29-.01-.58-.02-.88-.02h0Z"/>
  </g>
  <g>
    <path class="cls-1" d="m980.58,425.22c-15.94-.45-31.6-4.58-46.55-12.29-.04-.02-.08-.04-.12-.07-13.5-7.19-25.47-16.99-35.58-29.12-10.05-12.06-17.43-25.42-21.93-39.71-1.06-2.8-1.96-6.72-2.86-12.53,0,0-.53-2.12-.54-2.18-.55-1.28-.87-2.71-.89-4.09l-.51-3.6c-.03-.24-.06-.49-.08-.73-.43-5.95-.64-12.44-.64-19.29,0-13.1,1.54-26.15,4.59-38.8,2.61-12.11,6.55-24.36,11.71-36.42.03-.07.06-.14.09-.21,6.67-14.68,15.09-27.16,25-37.07,5.99-5.99,12.64-11.12,19.77-15.26,7.05-4.1,14.8-7.35,23.02-9.65,9.68-2.96,19.33-4.47,28.69-4.47,7.89,0,15.75,1.07,23.36,3.17,8.95,2.37,17.51,6.4,25.45,11.98,6.78,4.54,13.2,10.04,19.06,16.34.13.14.26.29.38.43,2.17,2.6,4.34,5.42,6.64,8.62.26.36.5.74.71,1.13l.04.04c.8.8,1.46,1.72,1.96,2.73l.98,1.96c.96,1.52,2.04,3.48,3.28,5.94,3.11,5.81,6,12.49,8.61,19.88.05.15.1.3.15.45,2.99,9.84,5.78,21.42,8.3,34.43,1.27,6.37,2.15,12.3,2.61,17.59.86,6.93,1.29,13.12,1.29,18.4,0,5.63-4.44,10.26-10.06,10.49l-59.34,2.47c-15.21.73-36.79,1.94-64.2,3.6l.17.51c.05.15.1.3.14.45,1.24,4.37,3.41,8.37,6.62,12.22,3.21,3.86,6.9,6.93,10.99,9.15,4.03,2,7.67,3.06,10.82,3.14,4.18-.39,5.59-.67,5.9-.74.21-.07.42-.12.62-.18l2.08-.52,1.47-.49c.25-.08.51-.16.78-.23l1.34-.34.2-.1c.55-.28,1.13-.5,1.72-.68.18-.14.35-.29.51-.45,1.15-1.15,2.33-2.45,3.49-3.86l2.83-5.66c.47-1.55.49-2.19.49-2.22,0-2.88,1.18-5.63,3.27-7.61,1.96-1.86,4.54-2.88,7.23-2.88.18,0,.37,0,.55.01l59.34,3.09c2.79.14,5.4,1.39,7.27,3.47,1.87,2.08,2.83,4.81,2.67,7.6-.47,8.4-2.34,17.09-5.55,25.84-2.69,7.61-6.1,14.88-10.15,21.62-.11.19-.23.37-.35.55-4.96,7.2-10.46,13.61-16.35,19.06-7.39,6.93-15.46,12.16-23.93,15.51-1.21.57-2.56,1.11-4.04,1.59-.24.08-.47.15-.71.21l-1.66.42-3.56,1.52c-.57.25-1.16.44-1.77.58-.3.13-.61.25-.9.35l-3.71,1.24c-.66.22-1.33.37-2.02.46l-4.51.56c-6.27,1.3-13.96,2.18-22.88,2.6-.16,0-.33.01-.49.01-.1,0-.2,0-.3,0Zm-11.96-178.69c8.03-.54,15.53-1.02,22.48-1.44-.17-.18-.33-.37-.49-.57-1.69-2.1-3.37-3.47-4.62-3.75-.35-.08-.69-.17-1.02-.28-.51-.17-1.15-.25-1.9-.25-1.44,0-3.17.31-5.17.91-1.72.59-3.27,1.29-4.6,2.09-1.48.89-3.01,1.94-4.56,3.15-.04.05-.09.09-.13.14Z"/>
    <path class="cls-2" d="m983.74,170.24c7,0,13.87.94,20.62,2.81,7.82,2.07,15.24,5.56,22.25,10.51,6.18,4.12,11.95,9.07,17.31,14.83,2.06,2.47,4.11,5.16,6.18,8.03l.62,1.24,1.24,1.24,1.24,2.47c.82,1.24,1.85,3.09,3.09,5.56,2.88,5.36,5.56,11.54,8.03,18.54,2.88,9.48,5.56,20.61,8.04,33.38,1.24,6.18,2.06,11.74,2.47,16.69.82,6.6,1.24,12.36,1.24,17.31l-59.34,2.47c-17.31.83-42.65,2.27-76.03,4.33.41,2.07.62,3.5.62,4.33v1.55c0,.62.2,1.14.62,1.55v2.47l1.24,3.71c1.64,5.78,4.53,11.13,8.65,16.07,4.11,4.94,8.85,8.87,14.21,11.74,5.77,2.89,11.13,4.33,16.07,4.33,4.53-.41,7.42-.82,8.65-1.24l2.47-.62,1.86-.62,2.47-.62,1.24-.62h.62c1.64-.82,3.09-1.85,4.33-3.09,1.64-1.64,3.29-3.49,4.94-5.56,1.24-2.47,2.47-4.95,3.71-7.42.82-2.47,1.24-4.53,1.24-6.18l59.34,3.09c-.41,7.42-2.07,15.05-4.95,22.87-2.47,7.01-5.56,13.6-9.27,19.78-4.54,6.6-9.48,12.36-14.83,17.31-6.6,6.18-13.6,10.72-21.02,13.6-.83.41-1.86.83-3.09,1.24l-2.47.62-4.33,1.85c-.42,0-1.03.21-1.85.62l-3.71,1.24-4.95.62c-5.77,1.24-12.98,2.07-21.63,2.47-14.43-.41-28.43-4.11-42.03-11.13-12.36-6.59-23.18-15.45-32.45-26.58-9.27-11.13-15.98-23.27-20.09-36.47-.83-2.06-1.65-5.77-2.47-11.13l-.62-2.47c0-.41-.21-1.02-.62-1.85v-.62l-.62-4.33c-.41-5.77-.62-11.95-.62-18.54,0-12.36,1.44-24.51,4.33-36.47,2.47-11.53,6.18-23.07,11.13-34.61,6.18-13.6,13.8-24.93,22.87-33.99,5.35-5.35,11.22-9.89,17.62-13.6,6.38-3.71,13.29-6.59,20.71-8.65,8.76-2.7,17.34-4.04,25.74-4.04m-33.77,88.1c23.07-1.64,42.44-2.88,58.1-3.71l-.62-.62c-1.24-3.71-2.47-6.8-3.71-9.27l-.62-1.86-.62-.62-.62-.62c-.83-1.64-1.86-2.88-3.09-3.71-3.3-4.11-6.8-6.59-10.51-7.42-1.59-.53-3.33-.79-5.22-.79-2.53,0-5.32.47-8.38,1.41-2.47.83-4.74,1.85-6.8,3.09-2.07,1.24-4.12,2.68-6.18,4.33-4.12,4.12-7.63,9.69-10.51,16.69-.42.42-.83,1.45-1.24,3.09m33.77-109.1c-10.37,0-21.01,1.64-31.65,4.89-9.03,2.54-17.56,6.12-25.35,10.65-7.9,4.58-15.28,10.27-21.91,16.9-10.81,10.81-19.94,24.32-27.14,40.16-.06.14-.12.28-.18.42-5.42,12.64-9.55,25.49-12.3,38.22-3.22,13.42-4.85,27.25-4.85,41.13,0,7.1.23,13.85.67,20.05.04.49.09.98.16,1.46l.43,3.04c.11,2.21.57,4.38,1.36,6.44l.25,1c.97,6.11,1.98,10.47,3.23,13.85,4.93,15.5,12.93,29.97,23.8,43.01,10.99,13.18,24.01,23.84,38.71,31.67.08.04.17.09.25.13,16.35,8.43,33.53,12.96,51.06,13.45.2,0,.39,0,.59,0,.33,0,.66,0,.98-.02,9.41-.44,17.3-1.33,24.1-2.72l4.1-.51c1.38-.17,2.73-.48,4.04-.92l3.71-1.24c.31-.1.61-.21.91-.33.87-.25,1.73-.55,2.57-.91l2.79-1.19.85-.21c.48-.12.96-.26,1.43-.41,1.76-.58,3.42-1.22,4.94-1.92,9.57-3.84,18.63-9.72,26.94-17.49,6.45-5.97,12.44-12.96,17.82-20.77.25-.36.48-.72.71-1.1,4.4-7.33,8.11-15.23,11.02-23.47,3.56-9.7,5.63-19.4,6.15-28.81.29-5.26-1.4-10.42-4.72-14.47,4.79-3.86,7.84-9.77,7.84-16.37,0-5.74-.44-12.12-1.35-19.5-.49-5.61-1.42-11.85-2.76-18.55-2.59-13.34-5.46-25.26-8.55-35.42-.09-.3-.19-.6-.29-.89-2.77-7.83-5.86-14.97-9.19-21.21-1.27-2.52-2.38-4.55-3.44-6.26l-.75-1.51c-.79-1.59-1.79-3.07-2.95-4.4-.2-.31-.41-.62-.63-.93-2.44-3.4-4.76-6.41-7.09-9.21-.25-.3-.5-.58-.76-.87-6.39-6.87-13.39-12.88-20.81-17.86-8.91-6.25-18.55-10.77-28.64-13.46-8.51-2.35-17.29-3.54-26.11-3.54h0Zm-12.95,179.62c7.91-.47,15.23-.89,21.91-1.26-.01.16-.03.32-.04.48-.57,1.13-1.13,2.26-1.7,3.39-.31.36-.62.71-.93,1.04h-.05c-.52.14-1.04.29-1.55.46l-1.09.36-1.69.42c-.18.04-.36.09-.54.14-.44.07-1.52.23-3.63.43-1.01-.11-2.9-.52-5.79-1.93-1.76-.97-3.39-2.14-4.92-3.55h0Z"/>
  </g>
  <g>
    <path class="cls-1" d="m1127.36,436.35c-2.76,0-5.41-1.08-7.37-3.02-1.99-1.96-3.12-4.64-3.13-7.44l-1.24-358.49c0-2.79,1.09-5.47,3.06-7.45,1.97-1.98,4.65-3.09,7.44-3.09h59.34c5.79,0,10.48,4.68,10.5,10.46l1.24,357.87c.02,5.77-4.62,10.48-10.39,10.54,0,0-59.41.62-59.45.62Z"/>
    <path class="cls-2" d="m1185.46,67.36l1.24,357.87-59.34.62-1.24-358.49h59.34m0-21h-59.34c-5.58,0-10.93,2.22-14.87,6.18-3.94,3.95-6.14,9.31-6.13,14.9l1.24,358.49c.02,5.59,2.27,10.95,6.25,14.88,3.93,3.88,9.23,6.05,14.75,6.05.07,0,.15,0,.22,0l59.34-.62c11.54-.12,20.82-9.53,20.78-21.07l-1.24-357.87c-.04-11.57-9.43-20.93-21-20.93h0Z"/>
  </g>
  <g>
    <path class="cls-1" d="m1247.87,411.62c-5.52,0-10.14-4.31-10.47-9.88-3.71-62.96-6-120.3-6.82-170.42-.09-5.78,4.5-10.55,10.28-10.67,0,0,59.48-1.24,59.56-1.24,2.71,0,5.33,1.05,7.29,2.94,2.01,1.94,3.17,4.6,3.21,7.39.81,49.41,3.09,105.82,6.78,167.67.17,2.79-.79,5.54-2.65,7.62s-4.49,3.34-7.28,3.49l-59.34,3.09c-.19,0-.37.01-.55.01Zm21.23-202.08c-11.16,0-20.97-4.03-29.15-11.97-8.55-8.27-13.15-18.45-13.68-30.24-.55-12.02,3.46-22.54,11.91-31.26,8.28-8.54,18.46-13.15,30.24-13.69.16,0,.32-.01.48-.01,7.84,0,15.18,1.75,21.83,5.2,6.84,3.57,12.36,8.67,16.43,15.19,4.09,6.55,6.19,13.96,6.23,22.02.48,11.94-3.53,22.38-11.92,31.03-8.29,8.56-18.47,13.16-30.25,13.69-.71.03-1.41.05-2.12.05Z"/>
    <path class="cls-2" d="m1268.89,132.87c6.18,0,11.84,1.34,17,4.02,5.15,2.68,9.27,6.49,12.36,11.43,3.09,4.94,4.64,10.51,4.64,16.69.41,9.07-2.58,16.9-8.96,23.49-6.39,6.6-14.12,10.1-23.18,10.51-.55.03-1.1.04-1.65.04-8.37,0-15.65-3-21.84-9-6.6-6.38-10.1-14.11-10.51-23.18-.41-9.06,2.57-16.89,8.96-23.49,6.38-6.59,14.11-10.09,23.18-10.51m31.52,97.04c.82,49.86,3.09,105.91,6.8,168.12l-59.34,3.09c-3.71-63.04-5.98-119.7-6.8-169.97l59.34-1.24m-31.52-118.04c-.32,0-.64,0-.96.02-14.34.66-27.24,6.49-37.3,16.87-10.4,10.73-15.54,24.24-14.86,39.06.64,14.34,6.48,27.24,16.88,37.31,1.94,1.89,3.98,3.6,6.11,5.14-10.66,1.17-18.86,10.29-18.68,21.22.82,50.27,3.12,107.76,6.83,170.86.66,11.15,9.9,19.77,20.95,19.77.37,0,.74,0,1.11-.03l59.34-3.09c5.59-.29,10.83-2.8,14.56-6.97,3.73-4.17,5.64-9.66,5.31-15.25-3.68-61.7-5.95-117.96-6.76-167.22-.09-5.58-2.4-10.9-6.43-14.78-3.45-3.32-7.9-5.35-12.62-5.79,2.33-1.76,4.54-3.73,6.64-5.89,10.28-10.6,15.42-23.93,14.88-38.57-.08-9.97-2.71-19.17-7.83-27.35-5.08-8.13-11.96-14.49-20.46-18.92-8.2-4.25-17.17-6.4-26.71-6.4h0Z"/>
  </g>
  <g>
    <path class="cls-1" d="m1457.11,425.22c-15.94-.45-31.6-4.58-46.55-12.29-.04-.02-.08-.04-.12-.07-13.5-7.19-25.47-16.99-35.58-29.12-10.05-12.06-17.43-25.42-21.93-39.71-1.06-2.8-1.96-6.71-2.86-12.53,0,0-.53-2.12-.54-2.18-.55-1.28-.87-2.71-.89-4.09l-.51-3.59c-.04-.24-.06-.49-.08-.73-.43-5.95-.64-12.44-.64-19.29,0-13.1,1.54-26.15,4.59-38.8,2.61-12.11,6.55-24.36,11.71-36.42.03-.07.06-.14.09-.21,6.67-14.68,15.09-27.16,25-37.07,5.99-5.99,12.64-11.12,19.77-15.26,7.05-4.1,14.8-7.35,23.02-9.65,9.67-2.96,19.33-4.47,28.69-4.47,7.89,0,15.75,1.07,23.36,3.17,8.95,2.37,17.51,6.4,25.45,11.98,6.79,4.54,13.2,10.04,19.06,16.35.13.14.26.28.38.43,2.17,2.61,4.34,5.43,6.64,8.62.26.36.5.74.71,1.14l.04.04c.8.8,1.46,1.72,1.96,2.73l.98,1.96c.96,1.52,2.04,3.48,3.28,5.95,3.11,5.81,6,12.49,8.61,19.88.05.15.1.3.15.45,2.98,9.83,5.78,21.41,8.3,34.43,1.27,6.37,2.15,12.3,2.61,17.59.86,6.93,1.29,13.12,1.29,18.4,0,5.63-4.44,10.26-10.06,10.49l-59.34,2.47c-15.21.73-36.79,1.94-64.2,3.6l.17.51c.05.15.1.3.14.45,1.24,4.37,3.41,8.37,6.62,12.22,3.21,3.86,6.9,6.93,10.99,9.15,4.03,2,7.67,3.06,10.82,3.14,4.18-.39,5.59-.67,5.9-.74.21-.07.42-.12.62-.18l2.08-.52,1.47-.49c.25-.08.51-.16.78-.23l1.34-.34.2-.1c.55-.28,1.13-.51,1.72-.68.18-.14.35-.29.51-.45,1.15-1.15,2.32-2.45,3.49-3.86l2.83-5.66c.47-1.56.49-2.19.49-2.22,0-2.88,1.18-5.63,3.27-7.61,1.96-1.86,4.54-2.88,7.23-2.88.18,0,.37,0,.55.01l59.34,3.09c2.79.14,5.4,1.39,7.27,3.47,1.86,2.08,2.83,4.81,2.67,7.6-.47,8.4-2.34,17.1-5.55,25.84-2.69,7.6-6.1,14.88-10.15,21.62-.11.19-.23.37-.35.55-4.96,7.2-10.46,13.61-16.36,19.06-7.39,6.93-15.46,12.16-23.93,15.51-1.21.57-2.56,1.11-4.04,1.59-.23.08-.47.15-.71.21l-1.66.42-3.56,1.52c-.57.24-1.16.44-1.76.58-.3.13-.61.25-.9.35l-3.71,1.24c-.66.22-1.33.37-2.02.46l-4.51.56c-6.27,1.3-13.96,2.18-22.88,2.6-.16,0-.33.01-.49.01-.1,0-.2,0-.3,0Zm-11.96-178.69c8.02-.54,15.53-1.02,22.48-1.44-.17-.18-.33-.37-.49-.57-1.69-2.1-3.37-3.47-4.62-3.75-.35-.08-.69-.17-1.02-.28-.51-.17-1.15-.25-1.9-.25-1.44,0-3.17.31-5.17.91-1.72.59-3.27,1.29-4.6,2.09-1.48.89-3.01,1.94-4.56,3.15-.04.04-.09.09-.13.14Z"/>
    <path class="cls-2" d="m1460.28,170.24c7,0,13.87.94,20.62,2.81,7.82,2.07,15.24,5.56,22.25,10.51,6.18,4.12,11.95,9.07,17.31,14.83,2.06,2.47,4.11,5.16,6.18,8.03l.62,1.24,1.24,1.24,1.24,2.47c.82,1.24,1.85,3.09,3.09,5.56,2.88,5.36,5.56,11.54,8.03,18.54,2.88,9.48,5.56,20.61,8.04,33.38,1.24,6.18,2.06,11.74,2.47,16.69.82,6.6,1.24,12.36,1.24,17.31l-59.34,2.47c-17.31.83-42.65,2.27-76.03,4.33.41,2.07.62,3.5.62,4.33v1.55c0,.62.2,1.14.62,1.55v2.47l1.24,3.71c1.64,5.78,4.53,11.13,8.65,16.07,4.11,4.94,8.85,8.87,14.21,11.74,5.77,2.89,11.13,4.33,16.07,4.33,4.53-.41,7.42-.82,8.65-1.24l2.47-.62,1.86-.62,2.47-.62,1.24-.62h.62c1.64-.82,3.09-1.85,4.33-3.09,1.64-1.64,3.29-3.49,4.94-5.56,1.24-2.47,2.47-4.95,3.71-7.42.82-2.47,1.24-4.53,1.24-6.18l59.34,3.09c-.41,7.42-2.07,15.05-4.95,22.87-2.47,7.01-5.56,13.6-9.27,19.78-4.54,6.6-9.48,12.36-14.83,17.31-6.6,6.18-13.6,10.72-21.02,13.6-.83.41-1.86.83-3.09,1.24l-2.47.62-4.33,1.85c-.42,0-1.03.21-1.85.62l-3.71,1.24-4.95.62c-5.77,1.24-12.98,2.07-21.63,2.47-14.43-.41-28.43-4.11-42.03-11.13-12.36-6.59-23.18-15.45-32.45-26.58-9.27-11.13-15.98-23.27-20.09-36.47-.83-2.06-1.65-5.77-2.47-11.13l-.62-2.47c0-.41-.21-1.02-.62-1.85v-.62l-.62-4.33c-.41-5.77-.62-11.95-.62-18.54,0-12.36,1.44-24.51,4.33-36.47,2.47-11.53,6.18-23.07,11.13-34.61,6.18-13.6,13.8-24.93,22.87-33.99,5.35-5.35,11.22-9.89,17.62-13.6,6.38-3.71,13.29-6.59,20.71-8.65,8.76-2.7,17.34-4.04,25.74-4.04m-33.77,88.1c23.07-1.64,42.44-2.88,58.1-3.71l-.62-.62c-1.24-3.71-2.47-6.8-3.71-9.27l-.62-1.86-.62-.62-.62-.62c-.83-1.64-1.86-2.88-3.09-3.71-3.3-4.11-6.8-6.59-10.51-7.42-1.59-.53-3.33-.79-5.22-.79-2.53,0-5.32.47-8.38,1.41-2.47.83-4.74,1.85-6.8,3.09-2.07,1.24-4.12,2.68-6.18,4.33-4.12,4.12-7.63,9.69-10.51,16.69-.42.42-.83,1.45-1.24,3.09m33.77-109.1c-10.37,0-21.01,1.64-31.65,4.89-9.03,2.54-17.56,6.12-25.35,10.65-7.9,4.58-15.28,10.27-21.91,16.9-10.81,10.81-19.94,24.32-27.14,40.16-.06.14-.12.28-.18.42-5.42,12.64-9.55,25.49-12.3,38.22-3.22,13.42-4.85,27.25-4.85,41.13,0,7.1.23,13.85.67,20.05.04.49.09.98.16,1.46l.43,3.04c.11,2.21.57,4.38,1.36,6.44l.25,1c.97,6.11,1.98,10.47,3.23,13.85,4.93,15.5,12.93,29.97,23.8,43.01,10.99,13.18,24.01,23.84,38.71,31.67.08.04.17.09.25.13,16.35,8.43,33.53,12.96,51.06,13.45.2,0,.39,0,.59,0,.33,0,.66,0,.98-.02,9.41-.44,17.3-1.33,24.1-2.72l4.1-.51c1.38-.17,2.73-.48,4.04-.92l3.71-1.24c.31-.1.61-.21.91-.33.87-.25,1.73-.55,2.57-.91l2.79-1.19.85-.21c.48-.12.96-.26,1.43-.41,1.76-.58,3.42-1.22,4.94-1.92,9.57-3.84,18.63-9.72,26.94-17.49,6.45-5.97,12.44-12.96,17.82-20.77.25-.36.48-.72.71-1.1,4.4-7.33,8.11-15.23,11.02-23.47,3.56-9.7,5.63-19.4,6.15-28.81.29-5.26-1.4-10.42-4.72-14.47,4.79-3.86,7.84-9.77,7.84-16.37,0-5.74-.44-12.12-1.35-19.5-.49-5.61-1.42-11.85-2.76-18.55-2.59-13.34-5.46-25.26-8.55-35.42-.09-.3-.19-.6-.29-.89-2.77-7.83-5.86-14.97-9.19-21.21-1.27-2.52-2.38-4.55-3.44-6.26l-.75-1.51c-.79-1.59-1.79-3.07-2.95-4.4-.2-.31-.41-.62-.63-.93-2.44-3.4-4.76-6.41-7.09-9.21-.25-.3-.5-.58-.76-.87-6.39-6.87-13.39-12.88-20.81-17.86-8.91-6.25-18.55-10.77-28.64-13.46-8.51-2.35-17.29-3.54-26.11-3.54h0Zm-12.95,179.62c7.92-.47,15.22-.89,21.91-1.26-.01.16-.03.32-.04.48-.57,1.13-1.13,2.26-1.7,3.39-.31.36-.62.71-.93,1.04h-.05c-.52.14-1.04.29-1.55.46l-1.09.36-1.69.42c-.18.04-.36.09-.54.14-.44.07-1.52.23-3.63.43-1.01-.11-2.9-.52-5.79-1.93-1.76-.97-3.39-2.14-4.92-3.55h0Z"/>
  </g>
  <g>
    <path class="cls-1" d="m1611.3,417.8c-5.54,0-10.18-4.34-10.48-9.94-4.12-76.87-7.03-154.97-8.67-232.12-.06-2.79.99-5.48,2.92-7.49,1.93-2.01,4.58-3.17,7.36-3.23,0,0,59.48-1.24,59.55-1.24,2.74,0,5.38,1.07,7.35,3,2.02,1.98,3.15,4.68,3.15,7.5,0,2.08.04,4.9.12,8.31,6.53-3.51,13.27-6.67,20.09-9.4.04-.02.09-.04.13-.05,16.98-6.53,35.27-10.5,54.36-11.8.24-.02.48-.02.71-.02,2.56,0,5.04.94,6.96,2.64,2.11,1.87,3.37,4.5,3.52,7.31l3.09,59.34c.3,5.71-4.03,10.61-9.73,11.02-10.46.75-20.45,2.81-29.7,6.11-4.3,1.81-8.47,4-12.39,6.49-.08.05-.16.1-.24.15-1.58.95-3.39,2.09-5.51,3.49l-1.73,1.73c-.27.27-.56.53-.86.77l-2.85,2.28c-7.01,6.35-12.32,13.44-15.79,21.06-3.48,7.65-5.24,15.96-5.24,24.71,0,1.12-.17,2.19-.5,3.2,1.2,33.54,2.61,64.47,4.19,92,.16,2.79-.8,5.53-2.66,7.61-1.87,2.08-4.48,3.33-7.27,3.48l-59.34,3.09c-.19,0-.37.01-.55.01Z"/>
    <path class="cls-2" d="m1747.91,171.81l3.09,59.34c-11.54.83-22.46,3.09-32.76,6.8-4.94,2.07-9.69,4.54-14.21,7.42-2.07,1.24-4.33,2.69-6.8,4.33l-2.47,2.47-3.09,2.47c-8.25,7.42-14.43,15.66-18.54,24.72-4.12,9.07-6.18,18.75-6.18,29.05h-.62c1.24,35.03,2.67,66.97,4.33,95.8l-59.34,3.09c-4.12-77.05-7.01-154.31-8.65-231.78l59.34-1.24c0,3.3.1,8.45.31,15.45.2,7.01.31,10.92.31,11.74,3.71-2.88,7-5.15,9.89-6.8,7.82-4.53,15.86-8.44,24.1-11.74,16.07-6.18,33.17-9.89,51.3-11.13m0-21c-.48,0-.95.02-1.43.05-20.14,1.37-39.45,5.57-57.41,12.48-.09.03-.18.07-.27.11-2.44.98-4.87,2.01-7.29,3.09-1.07-2.7-2.7-5.17-4.82-7.25-3.93-3.85-9.21-6-14.69-6-.15,0-.29,0-.44,0l-59.34,1.24c-5.57.12-10.86,2.44-14.72,6.46-3.86,4.02-5.96,9.41-5.84,14.98,1.64,77.26,4.56,155.47,8.68,232.46.6,11.2,9.87,19.88,20.95,19.88.37,0,.74,0,1.11-.03l59.34-3.09c5.58-.29,10.82-2.79,14.55-6.96,3.73-4.16,5.65-9.64,5.33-15.22-1.55-27.01-2.93-57.35-4.12-90.26.29-1.4.45-2.85.45-4.34,0-7.34,1.41-14,4.3-20.36,2.83-6.24,7.22-12.09,13.05-17.42l2.59-2.07c.6-.48,1.18-1,1.73-1.54l.96-.96c1.61-1.05,3.01-1.93,4.25-2.67.16-.1.32-.2.48-.3,3.35-2.13,6.9-4,10.57-5.56,8.28-2.93,17.24-4.75,26.65-5.43,11.41-.82,20.06-10.62,19.47-22.04l-3.09-59.34c-.29-5.62-2.83-10.89-7.04-14.62-3.85-3.42-8.81-5.29-13.93-5.29h0Z"/>
  </g>
</svg>